<?xml version="1.0" encoding="utf-8"?>
<!-- Generator: Adobe Illustrator 22.1.0, SVG Export Plug-In . SVG Version: 6.00 Build 0)  -->
<svg version="1.1" id="Layer_1" xmlns="http://www.w3.org/2000/svg" xmlns:xlink="http://www.w3.org/1999/xlink" x="0px" y="0px"
	 viewBox="0 0 208.3 59.1" style="enable-background:new 0 0 208.3 59.1;" xml:space="preserve">
<style type="text/css">
	.st0{fill:#002856;}
	.st1{fill:#76777A;}
</style>
<g>
	<g>
		<path class="st0" d="M202.4,31c-1.3,0-2.3,1-2.3,2.3c0,1.3,1,2.3,2.3,2.3c1.2,0,2.2-1,2.2-2.3C204.6,32.1,203.6,31,202.4,31z
			 M202.4,30.5c1.5,0,2.7,1.3,2.7,2.8s-1.2,2.8-2.8,2.8c-1.5,0-2.8-1.2-2.8-2.8C199.6,31.7,200.8,30.5,202.4,30.5z M201.9,33.1h0.2
			c0.4,0,0.6-0.1,0.6-0.4c0-0.3-0.1-0.4-0.5-0.4h-0.1h-0.2V33.1z M201.3,34.9v-3.1h1c0.4,0,0.6,0,0.7,0.1c0.3,0.1,0.4,0.4,0.4,0.7
			c0,0.4-0.2,0.6-0.6,0.9l0.8,1.4h-0.7l-0.7-1.3h-0.3v1.3H201.3z M169.5,10.7c0-0.6-0.2-1.2-0.4-1.7c-0.4,0.3-1.6,1.1-2.6,1.9
			c-3.7,3-7.4,7.8-9.8,12.2c-0.3,0.6-0.8,1.5-1.2,2c0.3,0,0.5-0.1,0.7-0.1c1.1-0.1,4.1-1.1,4.8-1.5c3.3-1.5,6.4-5.8,7.8-9
			C169.2,13.7,169.6,12,169.5,10.7z M167.2,9.3c0.4-0.3,1-0.6,1.6-1c-0.3-0.4-0.7-0.9-1.2-1.5c-1.5-1.4-2.9-1.7-5.1-2
			c-6-0.7-14,4.1-17.2,8.9c-0.4,0.7-0.9,1.7-1,2.5c-0.1,0.7,0,1.5,0.4,2.1c3.7,4.4,14.6-3.5,15.7-7.8c0.7-0.7,0.5,1.2,0.2,1.6
			c-0.6,1.2-3.2,3.9-4.4,4.7c-1.8,1.4-3.7,2.4-5.8,3.2c-1.3,0.5-2.5,0.6-3.9,0.3c-1.5-0.3-3.1-2-3.3-3.5c-0.2-1.5,0.7-3.6,1.5-4.8
			c0.9-1.3,2.8-3.4,4.3-4.4c3.8-2.6,7.3-3.6,11.8-3.8c1.7-0.1,3.1,0.2,4.4,0.7c1.1,0.4,2.1,1.1,2.9,1.8c0.4,0.4,1,1,1.4,1.5
			c0.4-0.2,0.9-0.5,1.3-0.7l0.2-0.1c0.2-0.1,3-1.5,4.5-1.3c0.6,0.1,1.1,0.2,0.1,0.5c-3.7,1-5.3,2-5.6,2.2c0.2,0.3,0.3,0.5,0.4,0.8
			l0.1,0.1c0.5,1.6,0.9,2.7,0.6,4.3c-0.3,1.6-0.9,3.1-1.7,4.5c-2.9,4.4-7.9,7.3-13.2,7.7c-0.4,0-0.7,0-1.1,0
			c-0.5,0.8-1.1,1.7-1.8,2.7c-1,1.3-2,2.6-3.2,3.7c-4.9,4.5-10.5,6.2-17.1,6.2c-2.7,0-5.1-0.8-7.1-2.1c-2.3-1.4-3.1-5.3-2.1-7.6
			c1.4-3.4,6.4-6.5,9.3-7.6c3.3-1.3,9.6-1.8,12.5,0.6c0.5,0.4,0.9,1,1.3,1.6c0.8,1.5,0.1,3.7-1,4.9c-2.2,2.7-7.5,4.5-10.9,4.5
			c-0.7,0-2,0-2.4-0.6c-0.1-0.1-0.1-0.4,0-0.4c1.1,0,2.1,0.3,3.2,0.2c2.6-0.2,4.8-1.1,7.1-2.3c1.8-0.9,3.8-3.1,3.5-5.3
			c-0.2-1.3-1.3-2.4-2.5-2.9c-7.3-2.6-23.5,4.5-18.7,13c0.6,1.1,2,1.9,3.1,2.4c4.7,1.9,10,0,14-2.7c2.3-1.5,4-3.5,6-5.4
			c0.3-0.2,0.9-0.9,1.5-1.6c0.1-0.1,0.1-0.1,0.2-0.2c0.3-0.4,0.6-0.7,0.8-1c0.2-0.2,0.3-0.4,0.5-0.6c-0.4-0.1-0.7-0.2-0.9-0.4
			c-0.8-0.6-1.5-1.4-0.1-0.6c0.4,0.2,0.9,0.4,1.5,0.4l0.2-0.2c0.2-0.1,2.4-2.7,2.7-3.1c0.8-0.9,1.7-1.8,2.4-2.7
			c1.3-1.6,2.6-3.2,4-4.7c1.5-1.6,3.6-3.2,5.4-4.4C166.5,9.8,166.8,9.6,167.2,9.3z M110.7,28.5c-0.6,0.7-3.1-1.1-5.2,0.1
			c-2.2,1.3-5.7,6.8-2.9,8.8c1.6,1.2,5.5-0.3,6.6-1.8c0.4-0.6,0.7-1.3,0.9-2c-1.2-0.5-2.3-0.6-3.6-0.5c-0.9,0-1.6,1.2-0.9,2
			c0.1,0.1,0.4,0.3,0.5,0.1c-0.6-1.1,1.5-1.9,1.4-0.3c0,0.5-0.6,0.8-1,1c-1.9,0.6-2.3-1.3-1.8-2.7c0.5-1.4,2.4-2,3.7-2
			c2.7-0.1,5.7,1.3,8.4,0.9c2.6-0.4,1.9-3.1,0.2-2.5c0.6,2-2.3,2.4-2.3,0.5c0-2.2,4.8-1.6,4.7,0.9c0,0.4-0.2,0.8-0.4,1.2
			c-1.3,2.4-4.4,2.6-6.7,1.9c-0.3,0.5-0.5,1-0.9,1.5c-2.1,2.3-5.7,4.3-9,4c-1.6-0.1-3.6-1.6-4.1-3.1c-0.5-1.5-0.5-2,0-3.6
			c1-3,3.3-4.6,6.3-5.3c0.2-0.1,1.4-0.2,1.4-0.5c0-0.4-0.3-0.6-0.3-1.4c0.1-2.1,2.8-3.8,4.6-4.3c1.9-0.6,4.1-0.9,5.6,0.9
			c0.3,0.4,0.6,1.2,0.5,1.8c-0.3,1.3-2.6,2.8-3.5,1.2c-1-1.7,2.8-1.7,2.5-2.5c-1-2.3-6.1,0.6-6.9,3C107.8,27.7,111.1,27,110.7,28.5z
			 M170.8,21.3c-1.1,1.1-2.3,2.1-3.2,3.3c-0.2,0.3-0.4,0.5-0.4,0.5s0.5-0.3,1.4-1c1.1-0.8,2.5-1.8,3.3-2.5c1-0.9,2.2-1.8,3.3-2.7
			c1.1-0.9,8.3-7.2,8.3-8c0-0.4-1,0.2-1.2,0.3c-1.4,0.8-2.9,2.1-4.1,3.2C175.7,16.7,173.2,18.9,170.8,21.3z M180.3,25.1
			c-0.6-1.6-5.5,2.7-6.2,3.3c-1.5,1.3-5.6,5.3-6.2,7.1c-0.4,1.3,1.7-0.1,1.9-0.3c2.1-1.2,4-3.2,5.7-4.9c1.2-1.2,3.3-2.8,4.2-4.1
			C180,25.9,180.5,25.4,180.3,25.1z M188.7,37c-0.4-0.3-0.6-0.9-0.7-1.4l0-0.2c0-0.1,0-0.3,0-0.4c0-0.5,0.2-0.6,0.2-0.6
			s-0.7,0.4-1.1,0.7l-0.3,0.2c-1.8,1.2-4.8,3-6.1,1.8c-0.4-0.3-0.6-0.9-0.7-1.4l0-0.2c0-0.1,0-0.3,0-0.4c0-0.5,0.2-0.6,0.2-0.6
			s-0.7,0.4-1.1,0.7c-0.6,0.4-1.4,0.9-2.2,1.4c-0.9,0.5-1.8,0.9-2.4,0.9c-0.6,0-1.2-0.5-1.4-1.1c-0.1-0.2,0-0.8,0-1.2
			c0.1-0.5,0.2-1,0.2-1s-0.9,0.6-1.2,0.8c-0.1,0.1-0.1,0.1-0.2,0.2c-1.3,1-3,2.6-4.7,2.2c-0.8-0.2-1-1-1-1.8c0-0.1,0-0.1,0-0.2
			c0-0.9,0.3-1.9,0.3-1.9s-0.9,0.6-1.2,0.8c0,0-0.1,0.1-0.1,0.1c-2,1.4-5.4,4.2-7,2.5c-0.8-0.8-0.6-2.2-0.2-3.1
			c3.3-6.7,14.3-17.1,20.5-21.4c1-0.7,5.8-4.3,6.7-2.2c1,2.5-13.1,12.8-14.4,13.7c-2.3,1.7-5,3.3-7.1,5.4c-1.1,1.1-2.2,2.6-3,3.9
			c-0.4,0.6-1.4,2.1-1.3,2.9c0.1,0.7,1.4,0.1,1.8-0.1c2.5-1.1,4.8-3.2,6.9-4.9c0.4-0.3,0.6-0.6,0.9-0.9c0.6-0.4,1-1.1,1.6-1.5
			c2.4-1.9,5-3.8,8-4.5c1.6-0.4,2.5,0.8,2.8,0.8c0.3-0.1,0.8-0.5,1.1-0.6c0.3-0.1,1.8-0.1,2.1-0.1c1.2,0-0.2,1-1.5,2.3
			c-2.2,2.1-5.8,5.4-7.7,8c-0.2,0.3-1.1,1.6-0.6,1.8c0.2,0.1,0.9-0.3,1.6-0.6c0.5-0.3,0.9-0.5,1.1-0.6c2-1,6.6-5.6,10.3-9.6h-2.1
			c-0.2,0-0.2-0.1-0.1-0.2l0.7-0.7c0.1-0.1,0.4-0.2,0.6-0.2h1.9c2.4-2.6,4.2-4.6,4.3-4.8c0.2-0.3,1.8-2,2-2c0.2-0.1,0.4-0.2,0.5-0.2
			h2.3c0.2,0,0.2,0.1,0.1,0.2l-0.2,0.2c-0.4,0.6-3,3.3-6,6.6h1c0.2,0,0.2,0.1,0.1,0.2l-0.7,0.7c-0.1,0.1-0.4,0.2-0.6,0.2h-0.8
			c-4.6,4.9-9.6,10.4-9.3,11c0.3,0.6,2.7-0.5,4.3-1.5c2.6-1.7,6.6-5.7,10.1-9.5h-2.5c-0.2,0-0.2-0.1-0.1-0.2l0.7-0.7
			c0.1-0.1,0.4-0.2,0.6-0.2h2.3c2.4-2.6,4.2-4.6,4.3-4.8c0.2-0.3,1.8-2,2-2c0.2-0.1,0.4-0.2,0.5-0.2h2.3c0.2,0,0.2,0.1,0.1,0.2
			l-0.2,0.2c-0.4,0.6-3,3.3-6,6.6h2.8c0.2,0,0.2,0.1,0.1,0.2l-0.7,0.7c-0.1,0.1-0.4,0.2-0.6,0.2h-2.6c-4.6,4.9-9.6,10.4-9.3,11
			c0.2,0.4,1,0.1,1.9-0.3c1.4-0.7,3.1-1.9,3.9-2.4c0.7-0.5,1.7-1.4,2.4-1.8c0.1,0,0.2-0.1,0.3,0c0.1,0.2,0.1,0.4,0,0.6
			c-0.2,0.8-2.9,2.6-5,3.8c-0.4,0.2-0.8,0.5-1.2,0.6C190.7,37.4,189.5,37.7,188.7,37z M81.5,37c-0.4-0.3-0.6-0.9-0.7-1.4l0-0.2
			c0-0.1,0-0.3,0-0.4c0-0.5,0.2-0.6,0.2-0.6s-0.7,0.4-1.1,0.7l-0.3,0.2c-1.8,1.2-4.8,3-6.1,1.8c-0.4-0.3-0.6-0.9-0.7-1.4l0-0.2
			c0-0.1,0-0.3,0-0.4c0-0.5,0.2-0.6,0.2-0.6s-0.7,0.4-1.1,0.7c-0.6,0.4-1.4,0.9-2.2,1.4c-0.7,0.4-1.4,0.8-1.8,0.9
			c-2.7,0.8-5-1.6-3.9-4.2c0.1-0.2,0.1-0.5,0.2-0.7L64,32.1c-0.1,0-1.5,0.7-2.6,1.3c-0.7,0.4-1.3,0.7-1.4,0.8
			c-1.4,0.9-3,1.5-4.5,2.4c-1,0.7-1.7,1.9-2.5,2.8c-2.7,3.2-7.7,9.9-11.5,11.9c-0.8,0.4-2.2,1.1-3.1,0.5c-1.1-0.6-0.7-2.1-0.2-3
			c1.2-2.2,3-3.7,4.9-5.3c1.3-1.1,2.8-2.1,4.2-3.1c1.2-0.9,3.5-2,4.5-2.9c0.8-0.7,2.4-2.6,2.8-3.5l-0.2-0.1c-1.7,0.9-3.6,3-5.6,3.2
			c-0.7,0.1-1.4-0.6-1.6-1.3c-0.4-0.9,0.2-2,0.5-2.8c0-0.1-0.1-0.2-0.2-0.1c0,0-0.3,0.2-0.8,0.4c-1.7,0.9-5.2,2.8-5.5,3.1
			c-0.5,0.3-1,0.8-1.6,1.5c-1.4,1.6-2.9,4-3.9,5.2c-2.1,2.7-5.3,6.3-8.3,8c-0.8,0.4-2.2,1.1-3.1,0.7c-0.3-0.1-0.8-0.5-0.9-0.9
			c-0.7-3.5,6.6-8.4,9.1-10.1c0.4-0.3,0.8-0.5,1.2-0.7c1.6-1,3-2,4.2-3.2c0.8-0.8,1.5-1.7,2.1-2.7l0.3-0.5c-0.1,0.1-0.3,0.2-0.6,0.4
			c-1.4,0.9-3.2,2.6-4.8,3c-1.2,0.3-2-1.1-1.9-2.1c0-0.2,0.3-1.2-0.3-0.9c-0.4,0.2-0.8,0.5-1.2,0.8c-0.3,0.2-0.6,0.5-0.9,0.6
			c-1.7,1-4.7,2.4-6.2,0.4c-0.4-0.6-0.6-1.1-0.7-1.8c0-0.3,0.1-1.5,0.5-2.2c0.4-0.6,0.6-1.2,1-1.8c1-1.5,2.4-2.9,3.8-3.9
			c1.6-1.1,4.8-3.2,6.7-3.3c0.7-0.1,1.7,0.1,2,0.9c0.6,1.6-1.5,3.2-2.6,4.1c-1.5,1.2-3.6,1.9-5.5,2.3l-0.2,0c0,0-0.1,0-0.1,0
			c-0.4,0.1-1,0.2-1,0.2s-0.2,0.2-0.4,0.4c-0.1,0.1-0.2,0.2-0.4,0.4c-0.1,0.1-0.2,0.2-0.3,0.4c-0.1,0.1-0.2,0.2-0.2,0.3
			c-1,1.2-2,3-1.5,3.7c0.9,1.3,3.7-0.3,5.8-1.6c0.9-0.6,1.7-1.2,2.1-1.4c0.8-0.5,1.4-1.5,2-2.2c1.2-1.4,2.8-2.9,4.5-3.9
			c1.2-0.7,5.6-3.1,6.9-2.1c0.3,0.2,0.6,1,0.6,1.1c0.3,0.3,1-1,1.9-1c0.2,0,2.1-0.4,1.8,0.3c-0.2,0.5-2.8,3.1-3.4,3.8
			c-0.9,1-4.5,5.1-4.8,6l0.1,0.1c1-0.3,2.6-1.2,4-2c1.1-0.7,2.2-1.4,2.8-1.9c0.9-0.8,1.9-1.7,2.8-2.5c1.8-1.7,5.9-4.2,8.4-3.9
			c1,0.1,0.9,1.2,1.3,1.3c0.5-0.2,0.8-0.7,1.2-0.9c0.2-0.2,2.1-0.4,2.2,0c0.1,0.2-0.3,0.5-0.4,0.7c-2.7,3-5.6,6-7.9,9.3l0.1,0.2
			c0.7-0.1,1.2-0.4,1.7-0.8c0.7-0.5,1.6-0.9,2.4-1.3c0.3-0.2,0.5-0.3,0.8-0.5c0.7-0.5,1.5-0.8,2.2-1.4c0.4-0.3,0.7-0.5,1.1-0.8
			c0.5-0.4,1-1,1.4-1.5c1.4-1.3,2.7-2.3,4.2-3.4c1.3-0.9,5.6-3.1,6.5-0.9c0.1,0.1,0.1,0.5,0.2,0.6c0,0,0,0.5,0,0.5
			c-0.3,0.2-0.2,0.5-0.4,0.8c-0.7,1.1-2.1,2.3-3.3,3c-0.8,0.5-1.6,0.9-2.5,1.1c-1.7,0.5-3.4,0.7-3.4,0.7l-0.3,0.3
			c-0.7,0.8-4.6,5.4-1.3,5.2c0.8,0,1.8-0.5,2.6-1c0.5-0.3,0.9-0.5,1.1-0.6c2-1,6.6-5.6,10.3-9.6h-2.1c-0.2,0-0.2-0.1-0.1-0.2
			l0.7-0.7c0.1-0.1,0.4-0.2,0.6-0.2h1.9c2.4-2.6,4.2-4.6,4.3-4.8c0.2-0.3,1.8-2,2-2c0.2-0.1,0.4-0.2,0.5-0.2h2.3
			c0.2,0,0.2,0.1,0.1,0.2l-0.2,0.2c-0.4,0.6-3,3.3-6,6.6h1c0.2,0,0.2,0.1,0.1,0.2L85.1,25c-0.1,0.1-0.4,0.2-0.6,0.2h-0.8
			c-4.6,4.9-9.6,10.4-9.3,11c0.3,0.6,2.7-0.5,4.3-1.5c2.6-1.7,6.6-5.7,10.1-9.5h-2.5c-0.2,0-0.2-0.1-0.1-0.2l0.7-0.7
			c0.1-0.1,0.4-0.2,0.6-0.2h2.3c2.4-2.6,4.2-4.6,4.3-4.8c0.2-0.3,1.8-2,2-2c0.2-0.1,0.4-0.2,0.5-0.2h2.3c0.2,0,0.2,0.1,0.1,0.2
			l-0.2,0.2c-0.4,0.6-3,3.3-6,6.6h2.8c0.2,0,0.2,0.1,0.1,0.2L95,25c-0.1,0.1-0.4,0.2-0.6,0.2h-2.6c-4.6,4.9-9.6,10.4-9.3,11
			c0.2,0.4,1,0.1,1.9-0.3c1.4-0.7,3.1-1.9,3.9-2.4c0.7-0.5,1.7-1.4,2.4-1.8c0.1,0,0.2-0.1,0.3,0c0.1,0.2,0.1,0.4,0,0.6
			c-0.2,0.8-2.9,2.6-5,3.8c-0.4,0.2-0.8,0.5-1.2,0.6C83.5,37.4,82.3,37.7,81.5,37z M76.2,24.4c-1.1-0.3-4.5,2.7-5.9,4.2
			c-0.4,0.5-0.9,1-0.9,1s0.5,0,1.5-0.4l0.6-0.3c2-1,4.9-3.4,4.9-4.4L76.2,24.4z M35,40.5c-0.3-0.3-2.5,1.4-2.9,1.7
			c-2.7,2.2-5.6,4.1-7.4,7.2c-0.2,0.3-0.5,1-0.4,1.3c0,0.1,0.2,0.2,0.3,0.2c0.9,0.1,3.6-2.4,4.2-3.1C29.6,47,35,41.1,35,40.5z
			 M49.4,40.6c-1.1,0.2-6.9,5-7.9,6c-0.5,0.5-3.4,3.9-2.7,4.5c1.2,1,6.8-5.9,7.8-6.9C47.5,43,48.7,41.8,49.4,40.6z M60.9,25.7
			c-0.1-0.3-0.5-0.4-0.8-0.3c-2.3,0.3-8.4,6.7-10.1,8.5c-0.2,0.3-1.7,1.8-1.1,2.1C50.5,36.9,61.7,27.7,60.9,25.7z M46.2,25.5
			c-1.2-1.4-8.5,5.8-9.5,7c-0.3,0.4-2.8,3-2,3.4c0.9,0.5,4.6-2.7,5.5-3.2c0.9-0.5,4.7-4.2,5.4-5.1c0.2-0.3,0.5-0.7,0.6-1.1
			C46.2,26.3,46.4,25.8,46.2,25.5z M36.4,24.1c-1.1-0.6-4.4,2.5-6,4.1c-0.1,0.1-0.2,0.1-0.2,0.2c-0.4,0.5-1.1,1.1-1.1,1.1
			s1.3-0.3,1.9-0.6c2.1-0.9,5.4-3.6,5.4-4.7L36.4,24.1z M16.4,36.5c-0.5-0.2-1.1-0.5-1.7-0.7c-0.8,0.4-1.7,0.8-2.4,1.1
			c-2.8,1-7,2.5-9.6,0.8c-0.1-0.2-0.4-0.3-0.4-0.5c-0.2-0.3-0.4-0.7-0.2-1c-0.1-0.3,0.2-0.5,0.3-0.8c1.4-2.3,6.1-2.2,8.4-1.8
			c0.2,0,0.4,0.1,0.6,0.1c0.6,0.1,1.2,0.3,1.8,0.5c0.6-0.5,1.3-1.2,2.1-1.9c3.2-3.3,8.2-9.8,9.2-11c0.1-0.2,0.3-0.4,0.5-0.6
			c0.4-0.6,1-1.3,1.6-2.1c-1.3,0.3-2.3,0.4-2.7,0.4c-0.2,0-0.5,0-0.8,0c-1.5,0.1-3.1,0.2-4.6-0.1c-3.5-0.7-8.1-2-9.6-5.7
			c-0.2-0.5-0.3-1.1-0.3-1.7c0.1-0.2,0-0.4,0-0.7c0.1-0.8,0.5-1.5,1-2.1c3-3.1,8.4-4,12.6-3.2c0.3,0.1,2.4,0.6,2.4,0.8
			c0,0.1-0.1,0.2-0.2,0.2c-0.6,0-1.3-0.1-1.9-0.2c-2-0.1-4.1-0.2-6.1,0.1c-2.6,0.5-7.4,1.7-7,5.2c0.1,0.5,0.4,1.5,0.6,2
			c0.9,1.6,3.3,2.8,5,3.4c2.9,1.1,6.4,1.4,9.5,1l0.3,0l0.4,0c0.7-0.1,1.3-0.2,2-0.3c0.6-0.7,3.7-4.4,5.9-6.6
			C35,8.9,44.8,0.3,47.3,3.1c0.6,0.6,0.6,1.5,0.3,2.3c-1.2,3.2-5.6,6.6-9.6,8.9l-0.1,0.1c-1.9,1.3-4.8,2.3-7.5,3
			c-0.9,1.5-1.4,2.4-1.8,3c0,0-0.1,0.1-0.1,0.1c-0.3,0.5-0.5,0.9-0.7,1.2c-0.8,1.6-1.8,3.1-2.8,4.6c-1.9,2.7-4,5.2-6.6,7.2l-0.3,0.2
			c-0.6,0.5-1.4,1-2.2,1.4c0.6,0.3,1.1,0.5,1.6,0.7c2.2,0.9,6.8,2.3,7.8,2.5c1.3,0.3,2.6,0.4,3.9,0.4c1,0,2.1-0.2,3.1-0.2
			c0,0,0.2,0.1,0.2,0.1c-0.2,0.5-4.2,1-4.4,1.2c-0.9,0-3.5-0.1-4.3-0.3c-1.8-0.6-3.4-1.3-5.1-2c-0.6-0.3-1.2-0.6-1.9-0.9
			C16.6,36.6,16.5,36.6,16.4,36.5z M31,16.5c3-1,5.4-2.2,6.4-2.8c0.6-0.4,1.3-0.8,2-1.2c2.8-1.5,5.4-4.3,7-6.9
			c0.2-0.3,0.5-1.2,0.3-1.5c-0.9-1.5-7.2,2.7-8.2,3.4c-0.8,0.6-1.8,1.4-2.5,2.1c-0.6,0.6-1.2,1.3-1.7,2.1
			C33.7,12.3,31.4,15.9,31,16.5z M9.1,36.7c0.3-0.1,1.8-1,1.8-1c0.5-0.3,0.9-0.6,1.3-0.9c-0.3-0.1-0.5-0.2-0.8-0.2
			c-1.8-0.7-8.1-1-8.7,1.5c-0.1,0.3,0.1,0.6,0.3,0.8C4.1,38.1,7.8,37.3,9.1,36.7z"/>
	</g>
	<g>
		<path class="st1" d="M94.7,45.6h5.8V47h-4.1v3h3.8v1.4h-3.8v3.4h4.2v1.4h-5.9V45.6z"/>
		<path class="st1" d="M102,45.6h2.7l1.9,7.9h0l1.9-7.9h2.6v10.7h-1.6v-8.9h0l-2.2,8.9h-1.4l-2.2-8.9h0v8.9H102V45.6z"/>
		<path class="st1" d="M112.9,45.6h3.4c2.1,0,3,1.3,3,3.1c0,1.9-1.1,3.2-3.1,3.2h-1.5v4.4h-1.7V45.6z M114.6,50.6h1.2
			c0.9,0,1.7-0.5,1.7-1.8c0-1.2-0.5-1.9-1.8-1.9h-1.1V50.6z"/>
		<path class="st1" d="M120.2,45.6h1.7v9.3h4.1v1.4h-5.8V45.6z"/>
		<path class="st1" d="M126.9,50.9c0-3.8,1.1-5.6,3.5-5.6c2.5,0,3.5,1.7,3.5,5.6c0,3.8-1.1,5.6-3.5,5.6
			C128,56.5,126.9,54.8,126.9,50.9z M132.3,50.9c0-3.6-0.8-4.2-1.8-4.2c-1,0-1.8,0.6-1.8,4.2c0,3.7,0.8,4.3,1.8,4.3
			C131.5,55.2,132.3,54.6,132.3,50.9z"/>
		<path class="st1" d="M136.8,52.1l-2.8-6.5h1.9l1.8,4.6l1.8-4.6h1.8l-2.9,6.5v4.2h-1.7V52.1z"/>
		<path class="st1" d="M142.3,45.6h5.8V47H144v3h3.8v1.4H144v3.4h4.2v1.4h-5.9V45.6z"/>
		<path class="st1" d="M149.6,45.6h5.8V47h-4.1v3h3.8v1.4h-3.8v3.4h4.2v1.4h-5.9V45.6z"/>
		<path class="st1" d="M161.9,53v0.3c0,1.3,0.6,2,1.8,2c1.1,0,1.6-0.8,1.6-1.6c0-1.1-0.6-1.6-1.5-1.9l-1.2-0.4
			c-1.6-0.6-2.2-1.4-2.2-2.9c0-2,1.3-3,3.3-3c2.7,0,3,1.7,3,2.8v0.2h-1.7v-0.2c0-1-0.4-1.5-1.5-1.5c-0.7,0-1.4,0.4-1.4,1.5
			c0,0.9,0.5,1.4,1.6,1.8l1.2,0.4c1.5,0.5,2.2,1.4,2.2,2.8c0,2.3-1.4,3.2-3.5,3.2c-2.7,0-3.3-1.8-3.3-3.3V53H161.9z"/>
		<path class="st1" d="M170.1,47h-2.5v-1.4h6.8V47h-2.5v9.3h-1.7V47z"/>
		<path class="st1" d="M174.7,50.9c0-3.8,1.1-5.6,3.5-5.6s3.5,1.7,3.5,5.6c0,3.8-1.1,5.6-3.5,5.6S174.7,54.8,174.7,50.9z
			 M180.1,50.9c0-3.6-0.8-4.2-1.8-4.2c-1,0-1.8,0.6-1.8,4.2c0,3.7,0.8,4.3,1.8,4.3C179.3,55.2,180.1,54.6,180.1,50.9z"/>
		<path class="st1" d="M183.4,45.6h3.8c1.5,0,2.7,0.8,2.7,2.8c0,1.4-0.6,2.4-1.8,2.6v0c1.1,0.1,1.6,0.7,1.7,2.2c0,0.7,0,1.5,0.1,2.2
			c0,0.5,0.3,0.8,0.5,0.9h-1.9c-0.2-0.2-0.2-0.5-0.3-0.9c-0.1-0.6,0-1.2-0.1-2c0-1.2-0.4-1.7-1.6-1.7h-1.4v4.6h-1.7V45.6z
			 M186.5,50.4c1.1,0,1.7-0.7,1.7-1.7c0-1.1-0.5-1.7-1.6-1.7h-1.5v3.5H186.5z"/>
		<path class="st1" d="M191.5,45.6h5.8V47h-4.1v3h3.8v1.4h-3.8v3.4h4.2v1.4h-5.9V45.6z"/>
	</g>
</g>
</svg>
