<?xml version="1.0" encoding="utf-8"?>
<!-- Generator: Adobe Illustrator 22.0.1, SVG Export Plug-In . SVG Version: 6.00 Build 0)  -->
<svg version="1.1" id="Layer_1" xmlns="http://www.w3.org/2000/svg" xmlns:xlink="http://www.w3.org/1999/xlink" x="0px" y="0px"
	 viewBox="0 0 200 200" style="enable-background:new 0 0 200 200;" xml:space="preserve">
<style type="text/css">
	.st0{fill:#EC3641;}
	.st1{fill:#232020;}
	.st2{fill:#EFF0F0;}
	.st3{fill:#BABCBE;}
	.st4{fill:none;}
</style>
<g>
	<path class="st0" d="M30.1,141.4c-13.6,0-24.6-11-24.6-24.6V93.5C5.5,80,16.6,69,30.1,69h139.7c13.6,0,24.6,11,24.6,24.6v23.3
		c0,13.6-11,24.6-24.6,24.6H30.1z"/>
	<path class="st1" d="M169.9,70.3c12.8,0,23.3,10.5,23.3,23.3v23.3c0,12.8-10.5,23.3-23.3,23.3H30.1c-12.8,0-23.3-10.5-23.3-23.3
		V93.5c0-12.8,10.5-23.3,23.3-23.3H169.9 M169.9,67.7H30.1c-14.3,0-25.9,11.6-25.9,25.9v23.3c0,14.3,11.6,25.9,25.9,25.9h139.7
		c14.3,0,25.9-11.6,25.9-25.9V93.5C195.7,79.3,184.1,67.7,169.9,67.7"/>
	<rect x="65.1" y="70.2" class="st2" width="69.9" height="69.9"/>
	<polygon class="st1" points="123.3,57.3 100,80.6 76.7,57.3 	"/>
	<polygon class="st3" points="123.3,85.5 100,108.7 76.7,85.5 	"/>
	<polygon class="st3" points="123.3,113.6 100,136.9 76.7,113.6 	"/>
	<rect x="4.3" y="57.3" class="st4" width="191.5" height="85.4"/>
</g>
</svg>
