<?xml version="1.0" encoding="utf-8"?>
<!-- Generator: Adobe Illustrator 22.0.1, SVG Export Plug-In . SVG Version: 6.00 Build 0)  -->
<svg version="1.1" id="Layer_1" xmlns="http://www.w3.org/2000/svg" xmlns:xlink="http://www.w3.org/1999/xlink" x="0px" y="0px"
	 viewBox="0 0 200 200" style="enable-background:new 0 0 200 200;" xml:space="preserve">
<style type="text/css">
	.st0{fill:#232020;}
	.st1{fill:#EFF0F0;}
	.st2{fill:#BABCBE;}
	.st3{fill:none;stroke:#232020;stroke-width:0.579;stroke-miterlimit:10;}
	.st4{fill:#EC3641;}
	.st5{fill:none;}
</style>
<g>
	<path class="st0" d="M170.7,88.8c-8.6,0-15.9,5.9-17.9,13.9l-15.7-0.8c-0.5-9.8-4.6-18.5-11.2-24.9l21.7-27.5
		c2.5,1.3,5.3,2.1,8.3,2.1c10.3,0,18.6-8.3,18.6-18.6c0-10.3-8.3-18.6-18.6-18.6c-10.3,0-18.6,8.3-18.6,18.6c0,4.6,1.7,8.7,4.4,11.9
		L120,72.4c-5.8-3.7-12.6-5.9-20-5.9c-9.7,0-18.4,3.8-25,9.8L45.3,49.8c1.6-2.8,2.6-5.9,2.6-9.3c0-10.3-8.3-18.6-18.6-18.6
		c-10.3,0-18.6,8.3-18.6,18.6c0,10.3,8.3,18.6,18.6,18.6c4.2,0,8-1.4,11.1-3.7L70,81.9c-4.5,6.2-7.2,13.7-7.2,21.8
		c0,7.4,2.2,14.2,5.9,20l-27.5,21.7c-3.2-2.7-7.4-4.4-11.9-4.4c-10.3,0-18.6,8.3-18.6,18.6c0,10.3,8.3,18.6,18.6,18.6
		c10.3,0,18.6-8.3,18.6-18.6c0-3-0.8-5.8-2.1-8.3l27.5-21.7c6.8,7,16.2,11.4,26.7,11.4c6.1,0,11.8-1.6,16.9-4.2l11,17
		c-3.4,3.4-5.6,8.1-5.6,13.3c0,10.3,8.3,18.6,18.6,18.6c10.3,0,18.6-8.3,18.6-18.6c0-10.3-8.3-18.6-18.6-18.6
		c-2.4,0-4.7,0.5-6.8,1.3l-11-17.1c7.1-5.7,12.1-13.9,13.5-23.3l15.7,0.8c1.3,8.9,9,15.8,18.3,15.8c10.3,0,18.6-8.3,18.6-18.6
		C189.3,97.2,181,88.8,170.7,88.8"/>
	<path class="st1" d="M100,133.5c-16.4,0-29.8-13.4-29.8-29.8S83.6,74,100,74c16.4,0,29.8,13.3,29.8,29.8S116.4,133.5,100,133.5"/>
	<path class="st1" d="M155.8,21.8c6.2,0,11.2,5,11.2,11.2c0,6.2-5,11.2-11.2,11.2c-6.2,0-11.2-5-11.2-11.2
		C144.7,26.9,149.7,21.8,155.8,21.8"/>
	<path class="st2" d="M29.3,170.7c-6.2,0-11.2-5-11.2-11.2c0-6.2,5-11.2,11.2-11.2c6.2,0,11.2,5,11.2,11.2
		C40.5,165.7,35.4,170.7,29.3,170.7"/>
	
		<ellipse transform="matrix(0.8507 -0.5257 0.5257 0.8507 -79.5022 39.228)" class="st3" cx="29.3" cy="159.5" rx="11.2" ry="11.2"/>
	<path class="st1" d="M140.9,155.8c6.2,0,11.2,5,11.2,11.2c0,6.2-5,11.2-11.2,11.2c-6.2,0-11.2-5-11.2-11.2
		C129.8,160.8,134.8,155.8,140.9,155.8"/>
	<path class="st2" d="M170.7,118.6c-6.2,0-11.2-5-11.2-11.2c0-6.2,5-11.2,11.2-11.2c6.2,0,11.2,5,11.2,11.2
		C181.9,113.6,176.9,118.6,170.7,118.6"/>
	
		<ellipse transform="matrix(0.8507 -0.5257 0.5257 0.8507 -30.9912 105.7931)" class="st3" cx="170.7" cy="107.4" rx="11.2" ry="11.2"/>
	<path class="st4" d="M29.3,51.6c-6.2,0-11.2-5-11.2-11.2c0-6.2,5-11.2,11.2-11.2c6.2,0,11.2,5,11.2,11.2
		C40.5,46.6,35.4,51.6,29.3,51.6"/>
	<rect x="3.2" y="14.4" class="st5" width="193.5" height="171.2"/>
</g>
</svg>
