<?xml version="1.0" encoding="utf-8"?>
<!-- Generator: Adobe Illustrator 22.0.1, SVG Export Plug-In . SVG Version: 6.00 Build 0)  -->
<svg version="1.1" id="Layer_1" xmlns="http://www.w3.org/2000/svg" xmlns:xlink="http://www.w3.org/1999/xlink" x="0px" y="0px"
	 viewBox="0 0 200 200" style="enable-background:new 0 0 200 200;" xml:space="preserve">
<style type="text/css">
	.st0{fill:#232020;}
	.st1{fill:#EC3641;}
</style>
<path class="st0" d="M101.4,4.5C89.7,4,77.8,5.7,66.4,9.7C28.4,23.1,3.7,59.5,3.1,99.4c0.5,37.8,23,71.9,56.6,87
	c-6.1-6.1-10.7-13.8-13.2-22.6c-6.6-23,3.4-48.3,23.8-60.7c11.4-6.9,22.5-6.3,35.1-8.3c14.8-2.4,27.8-12.3,34.1-25.9
	C153.1,39.5,132,7.4,101.4,4.5 M98.1,64.9c-8.4,0-15.2-6.8-15.2-15.2c0-8.4,6.8-15.2,15.2-15.2c8.4,0,15.2,6.8,15.2,15.2
	C113.3,58.1,106.5,64.9,98.1,64.9"/>
<path class="st1" d="M171.8,39c-9.5-11.5-21.5-20.4-34.7-26.3c5.9,6.1,10.4,13.6,12.9,22.3c6.6,23-3.4,48.3-23.8,60.7
	c-11.4,6.9-22.5,6.3-35.1,8.3c-14.8,2.4-27.8,12.3-34.1,25.9c-13.8,29.8,8.2,62.4,39.7,64.4c33.8,0.4,66.4-17.3,83.8-47
	C200.2,113.5,196.8,69.3,171.8,39 M98.1,164.1c-8.4,0-15.2-6.8-15.2-15.2c0-8.4,6.8-15.2,15.2-15.2c8.4,0,15.2,6.8,15.2,15.2
	C113.3,157.4,106.5,164.1,98.1,164.1"/>
</svg>
