<svg id="Layer_1" data-name="Layer 1" xmlns="http://www.w3.org/2000/svg" viewBox="0 0 500 500"><defs><style>.cls-1{fill:#ef4135;}.cls-2{fill:#f1f1f2;stroke:#231f20;stroke-linecap:round;stroke-miterlimit:10;stroke-width:4px;}.cls-3{fill:#2d2a26;}</style></defs><title>icon-box</title><path class="cls-1" d="M266.92,58.52V83.69H233.08V58.52ZM233.08,15.85V41h33.84V15.85Z"/><rect class="cls-2" x="187.56" y="109.51" width="124.88" height="374.64" transform="translate(500 593.66) rotate(180)"/><path class="cls-1" d="M277.6,254.55H227.08q-7.22,0-10.36-5.31a24.94,24.94,0,0,1-3.13-12.85V216.56q0-17.13,13.11-17.14h23a11.18,11.18,0,0,1,9.37,4.58q3.48,4.56,3.49,12.43v26.86h15Zm-49.36-11.26h24c1.32,0,2-.91,2-2.75V219.82q0-9.13-6.84-9.14H228.81q-3.59,0-5,1.72-1.84,2.37-1.85,7.42v13.62Q222,243.3,228.24,243.29Zm25.83,53.27c0-8.69-.17-13.75-.51-15.15q-1.35-4.49-6.46-4.48H213.85V265.29h35.49q13,0,13,18.23v13Zm7.61,21.3V306.6H213.59v11.26Zm-8.25,39.24V342.78l-39.84-.07V331.46h52.5q5.31,0,8.48,4.92a22.42,22.42,0,0,1,3.16,12.34v8.38h-7.8v-5.88a10,10,0,0,0-1.76-6.14,5.32,5.32,0,0,0-4.44-2.37h-2.18V357.1Zm-.51,37.14V380H213.59V368.72h64.14V380H261v14.26Z"/><path class="cls-3" d="M277.41,317.86H269V307.11h8.38Zm14.21-10.75h-8.38v10.75h8.38Z"/></svg>