<?xml version="1.0" encoding="utf-8"?>
<!-- Generator: Adobe Illustrator 22.1.0, SVG Export Plug-In . SVG Version: 6.00 Build 0)  -->
<svg version="1.1" id="Layer_1" xmlns="http://www.w3.org/2000/svg" xmlns:xlink="http://www.w3.org/1999/xlink" x="0px" y="0px"
	 viewBox="0 0 422 345" style="enable-background:new 0 0 422 345;" xml:space="preserve">
<style type="text/css">
	.st0{fill:#E6E7E8;}
	.st1{fill:#231F20;}
	.st2{fill:#BBBDBF;}
	.st3{fill:#EF4135;}
</style>
<title>icon-decompressed</title>
<path class="st0" d="M398.3,305.3H23.7c-5.4,0-9.7-4.4-9.7-9.7l19.5-181.5c0-5.4,4.3-9.7,9.7-9.7H371c9.6,0,17.5,7.9,17.5,17.5
	L408,295.6C408,301,403.7,305.3,398.3,305.3z"/>
<path class="st1" d="M398.3,302.3H46.7c-7.6,0-15.3,0.4-22.8,0c-7.4-0.4-6.8-6.5-6.3-11.6l2.4-22l7.8-72.6l7.2-66.9
	c0.5-4.8,1.1-9.6,1.5-14.4c0.5-5.5,4.2-7.2,9-7.2h322c5.5,0,10.6,0.4,14.6,5s3.8,11.1,4.4,16.8l2.8,25.1l8.4,74.8l6.7,59.8
	C404.9,294.3,406.6,301.9,398.3,302.3c-3.8,0.3-3.8,6.3,0,6.1c6.9-0.3,12.9-5.6,12.7-12.8c0-1.4-0.3-2.8-0.5-4.1L408,269l-8.4-75.1
	l-7.1-63.6c-0.5-4.9-0.5-11-2.2-15.5c-3.4-8.9-11.8-13.4-20.9-13.4H45.4c-8,0-14.1,4.2-14.9,12.7c-1.3,12.9-2.8,25.8-4.2,38.7
	L18,230.2l-6.4,59.4c-0.7,6.5-1.3,12.9,5.5,16.9c3.4,2,7,1.8,10.7,1.8h370.4C402.1,308.3,402.1,302.3,398.3,302.3z"/>
<path class="st0" d="M403,334.5H23c-5,0-9-4-9-9v-35.2c0-2.8,2.2-5,5-5h380c5,0,9,4,9,9v35.2C408,332.3,405.8,334.5,403,334.5z"/>
<path class="st1" d="M403,331.5H41.7c-6,0-11.9,0.1-17.9,0c-5.3-0.1-6.8-4.1-6.8-8.7v-26.9c0-2.2-1-7,2-7.6c0.3,0,0.6,0,0.8,0
	c2.1-0.2,4.3,0,6.4,0H396c1.4-0.1,2.8-0.1,4.2,0.1c4.6,0.9,4.9,5.1,4.9,8.8v26.7C405,325.8,406,331.2,403,331.5
	c-3.8,0.4-3.8,6.4,0,6c10.4-1,8-13.4,8-20.8s0.3-15,0-22.4c-0.3-7.2-5.9-11.9-12.9-12c-2.2,0-4.5,0-6.8,0H78.2
	c-19.5,0-39-0.5-58.5,0c-5.5,0.1-8.7,3.8-8.8,9.2c-0.1,8.9,0,17.7,0,26.6c0,2.5-0.1,5,0,7.4c0.1,6.6,5.4,11.9,12,12
	c1.2,0,2.3,0,3.5,0H403C406.9,337.5,406.9,331.5,403,331.5z"/>
<rect x="137.1" y="287.9" class="st2" width="147.8" height="44"/>
<polygon class="st2" points="275.1,106.9 146.9,106.9 137.1,282.5 284.9,282.5 "/>
<path class="st3" d="M223.6,42.9v19.7h-25.3V42.9H223.6z M198.4,9.5v19.7h25.3V9.5H198.4z"/>
</svg>
