<?xml version="1.0" encoding="utf-8"?>
<!-- Generator: Adobe Illustrator 22.0.1, SVG Export Plug-In . SVG Version: 6.00 Build 0)  -->
<svg version="1.1" id="Layer_1" xmlns="http://www.w3.org/2000/svg" xmlns:xlink="http://www.w3.org/1999/xlink" x="0px" y="0px"
	 viewBox="0 0 200 200" style="enable-background:new 0 0 200 200;" xml:space="preserve">
<style type="text/css">
	.st0{fill:#232020;}
	.st1{fill:#EC3641;}
	.st2{fill:#EFF0F0;}
	.st3{fill:none;}
</style>
<g>
	<path class="st0" d="M186,121l-21.2,12.3l-25.8-15l34.1-14.9c1.3-0.6,2.2-1.9,2.2-3.3c0-1.5-0.9-2.8-2.2-3.4l-34.2-15l25.9-15
		L186,79c0.6,0.3,1.2,0.5,1.8,0.5c1.3,0,2.5-0.7,3.2-1.8c1-1.7,0.4-4-1.3-5l-17.6-10.2l11.1-6.4c1.7-1,2.3-3.3,1.3-5
		c-1-1.7-3.3-2.3-5-1.3l-10.8,6.2V36.4c0-2-1.6-3.7-3.7-3.7c-2,0-3.7,1.6-3.7,3.7v23.8l-26,15.1l4-36.6c0.2-1.4-0.6-2.8-1.8-3.6
		c-1.3-0.7-2.8-0.6-4,0.2l-30,21.8V27.3l20.9-12c1.8-1,2.4-3.2,1.4-5c-1-1.8-3.2-2.4-5-1.4l-17.3,9.9V5.7c0-2-1.6-3.7-3.7-3.7
		c-2,0-3.7,1.6-3.7,3.7v13.2L79,9c-1.8-1-4-0.4-5,1.4c-1,1.8-0.4,4,1.4,5l20.9,12V57l-30-21.8c-1.2-0.8-2.7-0.9-4-0.2
		c-1.3,0.7-2,2.1-1.8,3.6l4.1,36.7l-26-15.1V36.4c0-2-1.6-3.7-3.7-3.7c-2,0-3.7,1.6-3.7,3.7v19.5l-10.8-6.2c-1.7-1-4-0.4-5,1.3
		c-1,1.7-0.4,4,1.3,5l11.1,6.4L10.4,72.6c-1.7,1-2.3,3.3-1.3,5c0.7,1.2,1.9,1.8,3.2,1.8c0.6,0,1.3-0.2,1.8-0.5l21.2-12.3l25.8,15
		L27,96.6c-1.3,0.6-2.2,1.9-2.2,3.3c0,1.5,0.9,2.8,2.2,3.4l34.2,15.1l-25.9,15L14,121c-1.7-1-4-0.4-5,1.3c-1,1.7-0.4,4,1.3,5
		l17.6,10.2L16.9,144c-1.7,1-2.3,3.3-1.3,5c0.7,1.2,1.9,1.8,3.2,1.8c0.6,0,1.3-0.2,1.8-0.5l10.8-6.2v19.5c0,2,1.6,3.7,3.7,3.7
		c2,0,3.7-1.6,3.7-3.7v-23.8l26-15.1l-4,36.6c-0.2,1.4,0.5,2.8,1.8,3.6c1.3,0.7,2.8,0.6,4-0.2l30-21.8v29.7l-20.9,12
		c-1.8,1-2.4,3.2-1.4,5c1,1.8,3.2,2.4,5,1.4l17.3-9.9v13.2c0,2,1.6,3.7,3.7,3.7c2,0,3.7-1.6,3.7-3.7v-13.2L121,191
		c0.6,0.3,1.2,0.5,1.8,0.5c1.3,0,2.5-0.7,3.2-1.8c1-1.8,0.4-4-1.4-5l-20.9-12V143l30,21.8c0.6,0.5,1.4,0.7,2.1,0.7
		c0.6,0,1.3-0.2,1.8-0.5c1.3-0.7,2-2.1,1.8-3.6l-4.1-36.7l26,15.1v23.8c0,2,1.6,3.7,3.7,3.7c2,0,3.7-1.6,3.7-3.7v-19.5l10.8,6.2
		c0.6,0.3,1.2,0.5,1.8,0.5c1.3,0,2.5-0.7,3.2-1.8c1-1.7,0.4-4-1.3-5l-11.1-6.4l17.6-10.2c1.7-1,2.3-3.2,1.3-5
		C190,120.6,187.7,120,186,121"/>
	<polygon class="st1" points="131.2,46 127.5,79.8 103.7,93.6 103.7,66.1 	"/>
	<polygon class="st2" points="162.5,100.1 131.1,113.8 107.3,100 131,86.2 	"/>
	<polygon class="st2" points="68.8,46 96.3,66.1 96.3,93.6 72.5,79.8 	"/>
	<polygon class="st2" points="37.5,99.9 68.9,86.2 92.7,100 69,113.8 	"/>
	<polygon class="st2" points="68.8,154 72.5,120.2 96.3,106.3 96.3,133.9 	"/>
	<polygon class="st2" points="131.2,154 103.7,133.9 103.7,106.4 127.5,120.2 	"/>
	<rect x="8" y="2" class="st3" width="184" height="195.9"/>
</g>
</svg>
