<svg id="Layer_1" data-name="Layer 1" xmlns="http://www.w3.org/2000/svg" width="248" height="99.28" viewBox="0 0 248 99.28">
  <defs>
    <style>
      .cls-1 {
        fill: #58595b;
      }

      .cls-2 {
        fill: #ef4135;
      }
    </style>
  </defs>
  <title>Artboard 1</title>
  <path class="cls-1" d="M149.46,19.92V30.06h-13V19.92Zm-13-17.2V12.87h13V2.72Z"/>
  <g>
    <path class="cls-2" d="M72.81,19.69V80.86q0,8.74-6.43,12.54T50.82,97.19h-24q-20.76,0-20.75-15.87V53.45A13.54,13.54,0,0,1,11.6,42.1q5.53-4.22,15.06-4.22H59.18V19.69ZM59.18,79.46v-29q0-2.4-3.33-2.4H30.77q-11.08,0-11.08,8.28V78.76q0,4.35,2.09,6,2.87,2.25,9,2.25H47.26Q59.19,87.05,59.18,79.46Zm64.5-31.28q-15.8,0-18.35.62-5.43,1.64-5.42,7.82V96.88H85.82v-43q0-15.72,22.06-15.72h15.8ZM149.46,39H135.83V97.19h13.63ZM197,49H179.63l-.08,48.23H165.93V33.63q0-6.44,6-10.26t14.94-3.84H197V29h-7.12a12.12,12.12,0,0,0-7.43,2.13,6.46,6.46,0,0,0-2.87,5.38v2.63H197Zm45,.62H224.67V97.19H211V19.53h13.63V39.82h17.26Z"/>
    <path class="cls-2" d="M232.16,92.29h-2v-.67h4.75v.67h-2v5h-.73Zm3.66-.67h.67L238,94.85a2.52,2.52,0,0,1,.18.52h0a2.52,2.52,0,0,1,.18-.52l1.47-3.23h.67l.44,5.63h-.71l-.32-3.82a2.58,2.58,0,0,1,0-.37h0l-1.44,3.14h-.59l-1.44-3.14h0a2.58,2.58,0,0,1,0,.37l-.32,3.82h-.72Z"/>
  </g>
</svg>
