<svg id="Layer_1" data-name="Layer 1" xmlns="http://www.w3.org/2000/svg" width="500" height="500" viewBox="0 0 500 500">
  <defs>
    <style>
      .cls-1 {
        fill: #232020;
      }

      .cls-2 {
        fill: #ed4035;
      }

      .cls-3 {
        fill: #eff0f0;
      }

      .cls-4 {
        fill: #fff;
      }

      .cls-5 {
        fill: #a5a8aa;
      }

      .cls-6, .cls-7 {
        fill: none;
        stroke-miterlimit: 10;
      }

      .cls-6 {
        stroke: #232020;
        stroke-width: 0.25px;
      }

      .cls-7 {
        stroke: #fff;
        stroke-width: 4px;
      }
    </style>
  </defs>
  <title>icon-drivehappy</title>
  <g>
    <path class="cls-1" d="M331.82,353.94H167.61c-7.76,0-14-6.76-14-14.77l15.52-176c0-8,6.26-14.77,14-14.77H316.3c7.76,0,14,6.75,14,14.77l15.52,176c0,8.27-6.26,14.77-14,14.77"/>
    <path class="cls-2" d="M164.1,336.67s-1.75-135.68,28-141.18c65.34-12,50.07-12,115.4,0,29.54,5.5,28,141.18,28,141.18Z"/>
    <path class="cls-3" d="M308.79,168.7c-.75-30.54-7.26-53.82-59.07-53.82s-58.33,23.28-59.08,53.82c-20.78.5.5,21,4.25,24.78,5,31.05,25.79,51.07,54.83,51.07s49.81-20.28,54.82-51.07c3.75-3.75,25-24.28,4.25-24.78"/>
    <path class="cls-1" d="M310,168.7c-.25-12.26-1.25-25.78-8.51-36.29-7.76-11.52-21.53-16-34.79-17.78-17.53-2.25-38.8-2.25-55.07,6-11.27,5.76-17.78,16-20.28,28-.5,2.75-1,5.5-1.25,8-.25,2.25.5,9.26-1,10.76-1,1-5,.75-6.51,2a5.84,5.84,0,0,0-2.25,4.76c0,5.26,4.75,10.51,8,14,1.5,1.75,3.75,3.25,5,5.25,2.26,4,2.51,10,4.26,14.52,5.76,15.77,17.27,29,33.29,34.55a54.33,54.33,0,0,0,67.59-26.29A58.52,58.52,0,0,0,304,202c.75-2.51.75-6,2-8.52a13.1,13.1,0,0,1,2.5-2.75c4-4.25,9.76-10,10.52-16,.75-6.26-5.26-7.51-10.27-7.76a1.26,1.26,0,0,0,0,2.5c18.53,1-2.25,17.28-5.25,23.28-1.76,3.26-1.76,8.26-3,12a61.06,61.06,0,0,1-6,13,51,51,0,0,1-17.27,17.77c-14.52,9-34.29,10-49.81,2.75-15.77-7.26-25.79-22.28-30-38.55-.75-3-.75-6-2.76-8.51-1.5-2-3.75-3.75-5.5-6a44.55,44.55,0,0,1-5.51-8c-2.5-5.75,1.25-7.51,6.76-8a1.18,1.18,0,0,0,1.25-1.25c.25-10.26,1-21.28,5.51-30.54,5-10,14.27-16,25-19,15.52-4.26,33.79-4.26,49.56-1.25,11.27,2.25,22,7,28.29,17s7,22.28,7.26,33.79c.25,2.5,2.75,2.5,2.75.75"/>
    <path class="cls-1" d="M336.58,400H162.85a15,15,0,0,1-14.77-14.77V355.7a15,15,0,0,1,14.77-14.77h174A15,15,0,0,1,351.6,355.7v29.53a15,15,0,0,1-15,14.77"/>
    <path class="cls-4" d="M336.58,398.75H193.14c-10,0-20.27.5-30.29,0-7-.25-12.76-5-13.52-12-.25-3.26-.25-6.51-.25-9.77V361.7c0-4-.5-8,1.26-11.76,5.25-11,22.78-8,32.79-8h116.4c11.77,0,23.78-.25,35.55,0,9.51.25,14.77,6.51,15,15.77q.38,13.14,0,26.28c0,8.26-5.26,14.27-13.52,14.77-1.5,0-1.5,2.51,0,2.51,11-.51,16-9.27,16-19.28,0-8.76.5-17.52,0-26.28-.5-9.27-7.26-15.77-16.52-16H200.15c-12.27,0-24.53-.26-36.8,0-21.53.5-16.52,27.78-16.52,42.3,0,10,4.76,18.77,16,19.28h61.33c36.8,0,73.6.25,110.4,0h2.25c1.5,0,1.5-2.51-.25-2.51"/>
    <path class="cls-5" d="M266.74,415.52l-5-81.1c0-19.53,9.51-35.3,27.29-35.3h6.51c17.77,0,30.79,21.28,30.79,40.81l-3.26,77.6Z"/>
    <path class="cls-1" d="M268,415.52c-1.25-19.27-2.25-38.55-3.51-57.82-1.25-21-5.5-56.58,25-57.33,7.76-.25,14.77.5,21,5.51,7.76,6.26,12.27,16,14,25.78,1.5,8,.5,16.53,0,24.54L323.06,393c-.25,5.26-.5,10.52-.75,16,0,2-1,6.25-.25,8.26-.25-1,2-.25,0-1-1.25-.5-4.26-.25-5.51-.25-6.51-.25-13-.5-19.52-.5-10-.25-20-.75-30-1-1.5,0-1.5,2.51,0,2.51,18.77.5,37.55,1.25,56.32,1.75a1.18,1.18,0,0,0,1.25-1.25l2-47.82c.75-17.27,4-36-4-52.06-5.51-11-15-19.53-27.79-19.53-11,0-20.52,2-27,11.52-10,14.51-6.26,34-5.26,50.56,1.25,18.53,2.25,37.05,3.51,55.57-.5,1.26,2,1.26,2-.25"/>
    <path class="cls-1" d="M330.07,425.54c0,7.26-16,10-35.8,10s-35.79-2.75-35.79-10,16-18,35.79-18,35.8,10.77,35.8,18"/>
    <path class="cls-6" d="M330.07,425.54c0,7.26-16,10-35.8,10s-35.79-2.75-35.79-10,16-18,35.79-18S330.07,418.28,330.07,425.54Z"/>
    <path class="cls-5" d="M176.37,417.28l-3.25-77.6c0-19.53,13-40.81,30.54-40.81h6.5c17.78,0,27.29,16,27.29,35.3l-5,81.1Z"/>
    <path class="cls-1" d="M177.62,417.28l-2.5-58.08c-.25-6.76-1-13.52-.75-20.28.25-18.52,12-38.55,32-38.55,8,0,15.27,1,21,7.26,6.5,7,9,17.53,9,26.79,0,6.76-.75,13.27-1.25,20l-2.26,37.3c-.25,5.26-.75,10.52-1,15.52,0,2-1.25,6-.5,8-.25-1,2-.25,0-1-1.5-.5-4.25.25-5.76.25-6.5.25-13,.5-19.52.5-10,.25-20,.75-30,1-1.5,0-1.5,2.51,0,2.51l56.32-1.75a1.19,1.19,0,0,0,1.25-1.26c1-15.77,2-31.54,2.76-47.31,1-15.77,4.75-35-.5-50.56-4-11.27-13-19.28-25.29-19.78-11.26-.5-20.77,1.75-28.28,10.76-13,15.52-11,34.05-10,52.82.76,18.78,1.51,37.3,2.26,56.08.5,1.25,3,1.25,3-.25"/>
    <path class="cls-2" d="M187.13,237.54l-8.76,52.57c-2.25,11.27-11.76,22.78-21,21.28l-3.51-.5c-9.51-1.5-12.77-11.52-10.51-22.78l10.76-39.8Z"/>
    <path class="cls-4" d="M186.13,237c-1.75,10.52-3.5,21-5.25,31.79-2,12.27-2.26,27.79-12.27,37.05a14.57,14.57,0,0,1-14,3.76c-7.26-1.51-10.51-7.26-10.51-14.52-.25-5.26,1.5-10.27,2.75-15.27,1.75-6.76,3.51-13.52,5.51-20,.75-2.75,1.5-5.51,2.25-8,.5-1.75,1.75-3.5.25-2.5,1.5-1,4.51-1.5,6.26-2,3.5-1.25,7.26-2.25,10.76-3.5,5.26-1.75,10.77-3.5,16-5.26a1.19,1.19,0,1,0-.75-2.25l-16.52,5.26c-3.75,1.25-7.51,2.5-11.26,3.5-1.5.5-4.26.75-5.26,1.75-2.5,2-2.75,8.27-3.75,11.27-2,7.76-4,15.27-6.26,23-3.51,13.27-4,29.54,13,31.29,16.78,1.75,22-18,24-31,2.5-14.52,4.75-29,7.26-43.81.25-1.25-2-2-2.26-.5"/>
    <path class="cls-1" d="M241.2,425.54c0,7.26-16,10-35.79,10s-35.8-2.75-35.8-10,16-18,35.8-18c19.77-.25,35.79,10.77,35.79,18"/>
    <path class="cls-6" d="M241.2,425.54c0,7.26-16,10-35.79,10s-35.8-2.75-35.8-10,16-18,35.8-18C225.18,407.26,241.2,418.28,241.2,425.54Z"/>
    <path class="cls-2" d="M260.48,96.61H239.2V79.84h21.28ZM239,68.32h21.28V51.55H239Z"/>
    <path class="cls-1" d="M289.52,166.7a3.76,3.76,0,1,1-3.76-3.75,3.68,3.68,0,0,1,3.76,3.75"/>
    <path class="cls-1" d="M217.17,166.7a3.76,3.76,0,1,1-3.75-3.75,3.68,3.68,0,0,1,3.75,3.75"/>
    <path class="cls-1" d="M310.54,175.46c2,1.75-1.5,5-3,6.26-1.25,1,.5,2.75,1.75,1.75,2.51-2,6.51-6.76,3-9.51-1-1.25-2.76.5-1.76,1.5"/>
    <path class="cls-1" d="M187.13,173.71c-3.5,3,.5,7.51,3,9.51,1.25,1,3-.75,1.75-1.75-1.5-1.25-5-4.26-3-6.26,1-.75-.75-2.5-1.76-1.5"/>
    <path class="cls-1" d="M247.21,204.5s4.26-14.27-6-9.51a36.12,36.12,0,0,1-26.53-.75c8,7.76,32.54,10.26,32.54,10.26"/>
    <path class="cls-1" d="M252.22,204.5s-4.26-14.27,6-9.51a36.12,36.12,0,0,0,26.53-.75c-8,7.76-32.54,10.26-32.54,10.26"/>
    <path class="cls-1" d="M304.54,180.47a64.52,64.52,0,0,1-54.82,29.79c-38.3,0-54.83-29.79-54.83-29.79s-24.53,79.1,54.83,79.1,54.82-79.1,54.82-79.1"/>
    <path class="cls-1" d="M254,111.88c-18.52.75-33,6-32.79,11.26a3.88,3.88,0,0,0,2,3,1.37,1.37,0,0,1-.75-1.25c-.25-3,6-5.51,14-6a29,29,0,0,1,11,1.25,35.46,35.46,0,0,0-7.51-.5c-7.76.25-14.27,3-14,6,0,1.25,1.51,2.5,3.51,3.25a.92.92,0,0,1-.75-.25c.25,0,.25,0,.5.25-9.76-1.25-16.27-4-16.52-7.51-.25-5.51,14.52-10.51,32.79-11.26,10.26-.5,19.27.5,25.53,2.25a74.63,74.63,0,0,0-17-.5"/>
    <path class="cls-2" d="M312.3,237.54l8.76,52.57c2.25,11.27,11.76,22.78,21,21.28l3.5-.5c9.51-1.5,12.77-11.52,10.51-22.78l-10.76-39.8Z"/>
    <path class="cls-4" d="M311.05,237.79c2,12.77,4.25,25.29,6.25,38,2.26,13.27,4,32.54,20,36.3,6.76,1.5,15-1.25,18.27-7.26s2.51-13.52,1-20c-2-7-3.75-14.26-5.75-21.27-1-3.51-1.76-6.76-2.76-10.27-.25-1.5-.5-4.25-1.5-5.5-.75-1-2-1.26-3.25-1.76l-11.27-3.75c-6.51-2-13-4.26-19.52-6.26-1.5-.5-2.26,2-.75,2.25,4.5,1.51,8.76,2.76,13,4.26,6,2,12.27,4.75,18.28,5.76a2.68,2.68,0,0,1,1.5.5c.5.25-1-1.51-.5-.25a42.09,42.09,0,0,1,1.5,6l5.51,20.28c3.25,12.52,9.76,35.05-10.77,35.05-10.51,0-17-12.52-18.52-21.28-1-5-1.75-9.76-2.5-14.77-2-12.27-4-24.53-6-37-.25-1.25-2.51-.5-2.25,1"/>
    <path class="cls-7" d="M338.33,258.82c0,13.77-39.8,24.78-88.61,24.78-49.07,0-88.62-11-88.62-24.78S200.9,234,249.72,234C298.78,234,338.33,245.05,338.33,258.82Z"/>
    <path class="cls-3" d="M188.64,232.79c2,3.75-6,8.51-15.77,14.26s-18,10.27-20.28,6.51c-2-3.75,4.25-11.26,14.27-17s19.77-7.51,21.78-3.75"/>
    <path class="cls-1" d="M187.63,233c1.76,4.75-12.26,11.26-15.27,12.76-2.5,1.5-17.27,11.27-18.77,6.26-1.5-4.76,10-12,13-14,4-2.25,17-9.76,21.27-4.5,1,1.25,2.76-.5,1.76-1.76-5.51-6.75-20,1.51-25.29,4.76-4.25,2.5-16.52,11-13,17.52s16.52-3,20-5c4-2.26,21.28-9.52,18.53-16.77-.5-1.26-3-.51-2.26.75"/>
    <path class="cls-3" d="M310.79,232.79c-2,3.75,6,8.51,15.78,14.26,10,5.76,18,10.27,20.27,6.51,2-3.75-4.25-11.26-14.27-17s-19.77-7.51-21.78-3.75"/>
    <path class="cls-1" d="M309.54,232.54c-2.75,7.26,14.27,14.51,18.53,16.77,3.5,2,16.52,11.26,20,5,3.76-6.5-8.76-14.77-13-17.52-5-3.25-19.78-11.51-25.29-4.75-1,1.25.75,3,1.76,1.75,4-5,16.52,1.75,20.52,4,3.26,1.75,15.52,9.26,14,14.52-1.5,5-15.52-4.25-17.77-5.51-3-1.75-18-8.51-16.27-13.51.5-1.51-2-2.26-2.51-.75"/>
  </g>
</svg>
