<?xml version="1.0" encoding="utf-8"?>
<!-- Generator: Adobe Illustrator 22.1.0, SVG Export Plug-In . SVG Version: 6.00 Build 0)  -->
<svg version="1.1" xmlns="http://www.w3.org/2000/svg" xmlns:xlink="http://www.w3.org/1999/xlink" x="0px" y="0px"
	 viewBox="0 0 114 114" style="enable-background:new 0 0 114 114;" xml:space="preserve">
<style type="text/css">
	.st0{display:none;}
	.st1{display:inline;stroke:#FFFFFF;stroke-miterlimit:10;}
	.st2{display:inline;}
	.st3{fill:#CD3943;}
</style>
<g id="Layer_1" class="st0">
	<rect x="-17" y="-15" class="st1" width="142" height="143"/>
	<title>playbutton</title>
	<desc>Created with Sketch.</desc>
	<g id="XX-Large" transform="translate(-893.000000, -479.000000)" class="st2">
		
			<image style="overflow:visible;enable-background:new    ;" width="744" height="700" id="playbutton" xlink:href="4D484CDDB5E6CE2A.png"  transform="matrix(0.18 0 0 0.18 883.04 473)">
		</image>
	</g>
</g>
<g id="Layer_2">
	<g>
		<path class="st3" d="M57,112.8c-30.8,0-55.8-25-55.8-55.8c0-30.8,25-55.8,55.8-55.8c30.8,0,55.8,25,55.8,55.8
			C112.8,87.8,87.8,112.8,57,112.8z M57,10.2c-25.8,0-46.8,21-46.8,46.8s21,46.8,46.8,46.8s46.8-21,46.8-46.8S82.8,10.2,57,10.2z"/>
		<polygon class="st3" points="87.5,56.5 61.6,71.4 35.8,86.4 35.8,56.5 35.8,26.6 61.6,41.6 		"/>
	</g>
</g>
</svg>
