<svg id="Layer_1" data-name="Layer 1" xmlns="http://www.w3.org/2000/svg" width="500" height="500" viewBox="0 0 500 500">
  <defs>
    <style>
      .cls-1 {
        fill: #6d6e71;
      }

      .cls-2 {
        fill: #ed4035;
      }

      .cls-3 {
        fill: #eff0f0;
      }

      .cls-4 {
        fill: #232020;
      }

      .cls-5 {
        fill: #e4e6e7;
      }

      .cls-6 {
        fill: #babcbe;
      }

      .cls-7 {
        fill: #fff;
      }

      .cls-8 {
        fill: #a5a8aa;
      }

      .cls-9 {
        fill: none;
        stroke: #232020;
        stroke-miterlimit: 10;
        stroke-width: 0.25px;
      }
    </style>
  </defs>
  <title>icon-sithappy</title>
  <g>
    <rect class="cls-1" x="44.74" y="372.93" width="410.49" height="27.34"/>
    <path class="cls-2" d="M163.12,325s6-110.5,33.36-115.36c60.46-11.12,46.33-11.12,106.79,0C330.6,214.71,336.86,325,336.86,325Z"/>
    <path class="cls-3" d="M304.66,184.83C304,156.57,297.94,135,250,135s-54,21.55-54.67,49.81c-19.23.46.46,19.46,3.94,22.93C203.89,236.49,223.12,255,250,255s46.1-18.76,50.73-47.26c3.47-3.47,23.17-22.47,3.94-22.93"/>
    <path class="cls-4" d="M305.82,184.83c-.24-11.35-1.16-23.86-7.88-33.59-7.18-10.66-19.92-14.83-32.2-16.45-16.22-2.08-35.91-2.08-51,5.56-10.43,5.33-16.45,14.83-18.77,26-.46,2.54-.92,5.09-1.16,7.41-.23,2.08.47,8.57-.92,10-.93.93-4.64.7-6,1.85a5.39,5.39,0,0,0-2.08,4.41c0,4.86,4.4,9.72,7.41,13,1.39,1.62,3.48,3,4.64,4.86,2.08,3.71,2.31,9.27,3.93,13.44,5.33,14.59,16,26.87,30.81,32a50.27,50.27,0,0,0,62.55-24.33,53.73,53.73,0,0,0,5.1-13.2c.69-2.32.69-5.56,1.85-7.88a12.23,12.23,0,0,1,2.32-2.55c3.7-3.93,9-9.26,9.73-14.82.69-5.79-4.87-6.95-9.5-7.18a1.16,1.16,0,0,0,0,2.31c17.14.93-2.09,16-4.87,21.55-1.62,3-1.62,7.64-2.78,11.12a56.49,56.49,0,0,1-5.56,12,47.17,47.17,0,0,1-16,16.45C262,255,243.73,256,229.37,249.23c-14.59-6.72-23.86-20.62-27.8-35.68-.69-2.78-.69-5.56-2.55-7.87-1.39-1.86-3.47-3.48-5.09-5.56a41.74,41.74,0,0,1-5.1-7.41c-2.32-5.33,1.16-7.19,6.26-7.42a1.09,1.09,0,0,0,1.15-1.16c.24-9.49.93-19.69,5.1-28.26,4.63-9.26,13.2-14.82,23.17-17.6,14.36-3.94,31.27-3.94,45.86-1.16,10.43,2.08,20.39,6.48,26.18,15.75s6.49,20.62,6.72,31.27c.23,2.32,2.55,2.32,2.55.7"/>
    <path class="cls-5" d="M455.23,375.94H44.74a13.84,13.84,0,0,1-13.67-13.66V334.94a13.85,13.85,0,0,1,13.67-13.67H455.23a13.85,13.85,0,0,1,13.67,13.67v27.34a13.69,13.69,0,0,1-13.67,13.66"/>
    <path class="cls-4" d="M455.23,375H66.75c-7,0-13.9.23-20.85,0-7.64-.23-13.44-4.87-13.9-12.74-.46-8.58-.23-17.15,0-25.72.23-8.11,5.33-13.67,13.44-13.9H455.23c13.9.7,12.51,14.6,12.51,24.56,0,10.19,2.55,26.87-12.51,27.8a1.16,1.16,0,0,0,0,2.31c11.12-.69,14.83-9.26,14.83-19V341.89c0-3.47.46-7.18-.46-10.42-3-10.66-12.75-10.89-21.78-10.89H109.37c-21.31,0-42.39-.46-63.7,0-6,0-11.82,3-14.36,8.8-1.63,3-1.39,6.72-1.39,10.43v16c0,3.71-.47,7.64.69,11.12A15.81,15.81,0,0,0,42.89,377.1a36.12,36.12,0,0,0,5.1.23H455.46c1.16-.23,1.16-2.31-.23-2.31"/>
    <rect class="cls-6" x="167.98" y="322.66" width="164.24" height="52.12"/>
    <rect class="cls-2" x="32.93" y="345.37" width="434.12" height="6.95"/>
    <path class="cls-7" d="M196.48,259.65l-9,61.62c0-.46,1.85-.69,2.09-1.15l9-61.86c-.23.7-2.08.93-2.08,1.39"/>
    <path class="cls-7" d="M301.42,259.65l9,61.85c0-.23,2.08-.92,2.08-1.15l-9-61.85c0,.23-2.08.69-2.08,1.15"/>
    <path class="cls-3" d="M345.43,320.58c0,3.94-8.57,4.17-19.23,4.17S307,324.52,307,320.58s8.58-7.18,19.23-7.18c10.43,0,19.23,3.24,19.23,7.18"/>
    <path class="cls-4" d="M344.27,320.12c-.69,4.63-14.82,3.24-18.3,3.24s-16.45,1.39-17.37-2.78c-1.39-5.33,14.36-6.26,17.37-6.26,4.17,0,17.37.24,18.3,6.26.23,1.39,2.32.92,2.09-.7-1.16-7.87-16-8.1-21.55-7.87-4.63,0-19.46.92-19.46,8.11.23,6.71,14.6,5.09,18.3,5.09,4.41,0,21.32,2.32,22.47-4.86.47-.93-1.62-1.62-1.85-.23"/>
    <path class="cls-3" d="M193.23,320.58c0,3.94-8.57,4.17-19.22,4.17s-19.23-.23-19.23-4.17,8.57-7.18,19.23-7.18,19.22,3.24,19.22,7.18"/>
    <path class="cls-4" d="M192.07,320.12c-.69,4.63-14.82,3.24-18.3,3.24s-16.44,1.39-17.37-2.78c-1.39-5.33,14.36-6.26,17.37-6.26,4.17,0,17.38.24,18.3,6.26.24,1.39,2.32.92,2.09-.7-1.16-7.87-16-8.1-21.54-7.87-4.64,0-19.46.92-19.46,8.11.23,6.71,14.59,5.09,18.3,5.09,4.4,0,21.31,2.32,22.47-4.86.69-.93-1.62-1.62-1.86-.23"/>
    <path class="cls-8" d="M258.1,387.53,253.46,319c0-16.45,8.81-29.89,25.25-29.89h6c16.44,0,28.49,18.07,28.49,34.52l-3,65.56Z"/>
    <path class="cls-4" d="M259.25,387.53,256,337.26c-.46-6-1.16-12.28-1.16-18.53-.23-7.65,2.09-16,7.42-21.78,5.09-5.56,12-6.95,19.22-6.95,7.65,0,13.9,1.62,19.69,6.95,6.49,6,10.2,14.83,11.12,23.4.47,6-.23,12.51-.69,18.53-.47,10.89-.93,21.77-1.62,32.66-.24,4.17-.47,8.34-.7,12.74,0,1.16-.46,2.55-.23,3.48.46,2.55-.93-.47.93.23-2.32-.7-6.26-.23-8.81-.23l-17.83-.47-25.49-.69a1.17,1.17,0,0,0,0,2.32c17.38.46,34.75.92,52.13,1.62a1.09,1.09,0,0,0,1.15-1.16c.7-13.9,1.39-27.8,1.86-41.7.69-14.82,3.47-30.58-4.64-44-5.32-9-13.89-15.29-24.55-15.29-9.73-.23-19,1.39-25.25,9.73-9,12-6,28-5.1,41.93,1.16,16,2.09,32,3.25,48.18.46.7,2.54.7,2.54-.69"/>
    <path class="cls-4" d="M316.7,396.56c0,6.72-14.82,9.27-33.12,9.27s-33.13-2.32-33.13-9.27c0-6.72,14.83-16.68,33.13-16.68s33.12,10,33.12,16.68"/>
    <path class="cls-9" d="M316.7,396.56c0,6.72-14.82,9.27-33.12,9.27s-33.13-2.32-33.13-9.27c0-6.72,14.83-16.68,33.13-16.68S316.7,389.84,316.7,396.56Z"/>
    <path class="cls-8" d="M189.76,388.92l-3-65.56c0-16.45,12-34.52,28.26-34.52h6c16.45,0,25.25,13.44,25.25,29.89l-4.63,68.56Z"/>
    <path class="cls-4" d="M190.92,388.92c-.7-16.91-1.63-33.83-2.32-50.5-.23-6.72-1.39-13.9-.23-20.85,1.39-8.11,5.33-16.22,11.81-21.78,5.79-4.86,12.28-5.79,19.46-5.79,16.45,0,26.18,13,25.71,29-.23,6.25-.92,12.51-1.15,19q-1,16.33-2.09,32.67l-.93,12.27c0,.93-.46,2.32-.23,3.25.47,2.54-1.15-.47.93.23-2.55-.7-6.25.23-8.8.23l-17.84.46-25.48.7a1.16,1.16,0,0,0,0,2.31c17.37-.46,34.75-.92,52.12-1.62a1.1,1.1,0,0,0,1.16-1.16q1.38-20.49,2.78-41c.92-13.43,4.4-29.65-.93-42.62-7.87-18.77-35-21.55-48.41-7.42-12,12.51-10.66,28.27-10,44,.7,16.21,1.39,32.43,2.32,48.65-.23,1.39,2.09,1.62,2.09,0"/>
    <path class="cls-4" d="M249.76,396.56c0,6.72-14.83,9.27-33.13,9.27s-33.13-2.32-33.13-9.27c0-6.72,14.83-16.68,33.13-16.68s33.13,10,33.13,16.68"/>
    <path class="cls-9" d="M249.76,396.56c0,6.72-14.83,9.27-33.13,9.27s-33.13-2.32-33.13-9.27c0-6.72,14.83-16.68,33.13-16.68S249.76,389.84,249.76,396.56Z"/>
    <path class="cls-2" d="M260,118.11H240.26V102.59H260ZM240,91.94h19.69V76.41H240Z"/>
    <path class="cls-4" d="M286.82,183a3.48,3.48,0,1,1-3.47-3.48,3.41,3.41,0,0,1,3.47,3.48"/>
    <path class="cls-4" d="M219.87,183a3.48,3.48,0,1,1-3.47-3.48,3.41,3.41,0,0,1,3.47,3.48"/>
    <path class="cls-4" d="M306.28,191.08c1.85,1.63-1.39,4.64-2.78,5.8-1.16.92.46,2.54,1.62,1.62,2.32-1.86,6-6.26,2.78-8.81-.93-1.15-2.55.47-1.62,1.39"/>
    <path class="cls-4" d="M192.07,189.46c-3.24,2.78.47,6.95,2.78,8.81,1.16.92,2.78-.7,1.63-1.63-1.39-1.15-4.64-3.93-2.78-5.79.92-.69-.7-2.31-1.63-1.39"/>
    <path class="cls-4" d="M247.67,218s3.94-13.21-5.56-8.81a33.41,33.41,0,0,1-24.55-.69c7.41,7.18,30.11,9.5,30.11,9.5"/>
    <path class="cls-4" d="M252.3,218s-3.93-13.21,5.56-8.81a33.43,33.43,0,0,0,24.56-.69C275,215.64,252.3,218,252.3,218"/>
    <path class="cls-4" d="M300.72,195.72a60.47,60.47,0,0,1-101.46,0s-22.71,73.2,50.73,73.2,50.73-73.2,50.73-73.2"/>
    <path class="cls-4" d="M253.93,132c-17.15.7-30.58,5.56-30.35,10.43a3.59,3.59,0,0,0,1.85,2.78c-.23-.47-.46-.7-.46-1.16-.23-2.78,5.56-5.1,13-5.56a26.77,26.77,0,0,1,10.19,1.16,32.28,32.28,0,0,0-6.94-.47c-7.19.23-13.21,2.78-13,5.56,0,1.16,1.39,2.32,3.25,3a.86.86,0,0,1-.7-.23c.23,0,.23,0,.46.23-9-1.15-15.05-3.7-15.29-6.95-.23-5.09,13.44-9.72,30.35-10.42,9.5-.46,17.84.46,23.63,2.09a115.91,115.91,0,0,0-16-.47"/>
  </g>
</svg>
