<svg id="Layer_1" data-name="Layer 1" xmlns="http://www.w3.org/2000/svg" width="500" height="500" viewBox="0 0 500 500">
  <defs>
    <style>
      .cls-1 {
        fill: #232020;
      }

      .cls-2 {
        fill: none;
        stroke: #232020;
        stroke-miterlimit: 10;
        stroke-width: 0.25px;
      }

      .cls-3 {
        fill: #ed4035;
      }

      .cls-4 {
        fill: #6d6e71;
      }

      .cls-5 {
        fill: #e4e6e7;
      }

      .cls-6 {
        fill: #babcbe;
      }

      .cls-7 {
        fill: #eff0f0;
      }

      .cls-8 {
        fill: #a5a8aa;
      }

      .cls-9 {
        fill: #fff;
      }
    </style>
  </defs>
  <title>icon-sleephappy</title>
  <g>
    <path class="cls-1" d="M437.7,282.92c5.8,3.5.1,17.5-9.4,33.2s-19.3,27.1-25.1,23.6-6.6-21.4,2.9-37.1,25.9-23.2,31.6-19.7"/>
    <path class="cls-2" d="M437.7,282.92c5.8,3.5.1,17.5-9.4,33.2s-19.3,27.1-25.1,23.6-6.6-21.4,2.9-37.1S432,279.42,437.7,282.92Z"/>
    <path class="cls-3" d="M341.2,232.62s-60.3-23.1-114.9-32.1c12.8,6.4,31.7,19.4,37.2,42.5,8.2,34.3-42,76-42,76s47.1-41.6,38.9-76c-5.7-24-26-37.1-38.7-43.2-36.1-5.4-69-4.1-79.1,15-28.7,54.4-47.7,29.6-36.5,90.1,5.1,27.4,238,16.9,238,16.9Z"/>
    <rect class="cls-4" x="44.7" y="373.22" width="410.6" height="27.4"/>
    <path class="cls-5" d="M455.3,376.22H44.7A13.79,13.79,0,0,1,31,362.52v-27.4a13.79,13.79,0,0,1,13.7-13.7H455.3a13.79,13.79,0,0,1,13.7,13.7v27.4a13.79,13.79,0,0,1-13.7,13.7"/>
    <path class="cls-1" d="M455.3,375.12H66.8c-6.9,0-13.9.2-20.8,0-7.6-.2-13.5-4.8-13.9-12.8-.4-8.5-.2-17.2,0-25.7.2-8.2,5.2-13.7,13.5-14,2.3-.1,4.5,0,6.8,0H451c1.4,0,2.8-.1,4.2,0,14,.7,12.6,14.5,12.6,24.5,0,10.5,2.6,27.1-12.5,28-1.5.1-1.5,2.4,0,2.3,11.1-.6,14.8-9.3,14.8-19.1v-16.5c0-3.4.4-7.2-.6-10.5-2.9-10.7-12.8-10.9-21.7-10.9H109.3c-21.2,0-42.5-.4-63.7,0-6.1.1-11.7,2.9-14.4,8.7-1.6,3.5-1.3,7.1-1.3,10.8v16c0,3.7-.4,7.7.7,11.2a15.1,15.1,0,0,0,12.3,10.1,41.31,41.31,0,0,0,5,.1H455.3a1.1,1.1,0,0,0,0-2.2"/>
    <rect class="cls-6" x="167.9" y="323.12" width="164.2" height="51.4"/>
    <rect class="cls-3" x="32.9" y="345.42" width="434.1" height="6.8"/>
    <path class="cls-3" d="M259.9,191.22H240.1v-15.4h19.8Zm-19.8-26.1h19.8v-15.4H240.1v15.4Z"/>
    <path class="cls-7" d="M104.6,318.92c0,3.9-8.6,4.1-19.3,4.1s-19.3-.1-19.3-4.1,8.6-7.1,19.3-7.1,19.3,3.1,19.3,7.1"/>
    <path class="cls-1" d="M103.5,318.62c-.7,4.7-14.9,3.2-18.2,3.2s-16.3,1.3-17.4-2.7c-1.5-5.4,14.4-6.2,17.4-6.2,4.1,0,17.3.3,18.2,6.3.2,1.4,2.4.8,2.2-.6-1.1-7.8-15.9-8-21.4-7.9-4.6.1-19.5.9-19.4,8.2.1,6.6,14.6,5.2,18.3,5.2,4.5,0,21.4,2.3,22.5-4.9.3-1.5-1.9-2.1-2.2-.6"/>
    <path class="cls-8" d="M301.7,306.62l47.9-25.9c0,.1-21.3-84.3-47.9,25.9"/>
    <path class="cls-1" d="M302.3,307.62c16-8.6,31.9-17.2,47.9-25.9a1,1,0,0,0,.5-1.3c-2.1-8.1-5.1-16.6-9.7-23.6-2.4-3.6-5.7-7.6-10.3-8.1-5.6-.6-9.8,4.5-12.6,8.7-9.4,14.2-13.5,32.5-17.4,48.8-.3,1.4,1.9,2,2.2.6,2.9-12,6.1-24.1,10.8-35.6,2.4-6,5.3-12.7,10.1-17.3,6.5-6.2,12.4-.8,16.1,5.4a77.11,77.11,0,0,1,7.9,19,14.13,14.13,0,0,0,.6,2.2c.5.9,1.2-.6,0-.4-1.5.3-3.4,1.8-4.7,2.5l-8.4,4.5-34.1,18.4a1.19,1.19,0,0,0,1.1,2.1"/>
    <path class="cls-7" d="M118.1,213.62c-28.4.7-49.8,6.7-49.8,54.6s21.4,53.9,49.8,54.6c.4,19.3,19.4-.5,23-3.9,28.7-4.7,47.3-23.9,47.3-50.8s-18.7-46-47.4-50.7c-3.5-3.3-22.5-23.2-22.9-3.8"/>
    <path class="cls-1" d="M119.1,213c-11.4.3-22.8,1.4-32.8,7.4-14.3,8.6-18,25.3-18.8,40.9-.9,17-.3,39.4,13.4,51.8,5,4.6,11.4,7.1,18,8.5,3.1.6,6.2,1,9.3,1.3,1.8.2,3.7.3,5.5.4.6,0,3-.2,3.4.1s.3,3.4.4,4c3.3,12.2,20.9-5.6,24.5-9a19.83,19.83,0,0,1-2,1.1c26.7-4.7,49.7-23.7,49.3-52.7a48.73,48.73,0,0,0-19.8-39,61.18,61.18,0,0,0-21.9-9.9c-2.9-.7-5.1-.7-7.3-2.7-1.9-1.8-3.9-3.6-5.9-5.3-3.3-2.6-8-6.5-12.5-4.8-3.9,1.5-4.7,5.1-4.9,9,.1-.3,2-.7,2.1-1.1.1-2.8.3-6.3,3-7.9-.6.4-1.2.7-1.8,1.1,4.3-1.6,9.1,2.4,12.3,4.9,1.9,1.5,3.6,3.1,5.4,4.8,2.3,2.2,3.9,2.3,7.1,3.1,14.5,3.3,28.1,11.4,35.8,24.4,7.5,12.6,8.7,28.9,3.8,42.7-5.8,16.2-19.7,26.9-36.1,31-2.8.7-5.9.7-8.4,2.5-3.3,2.4-6,5.8-9.3,8.2-4.1,3-9.6,4.7-11.3-1.5-.4-1.5,0-3.4-1-4-.7-.5-3.6-.1-4.5-.2-2.9-.2-5.8-.4-8.6-.8-9.8-1.4-19.5-4.8-25.9-12.8-9-11.2-10.2-27.1-10.2-40.8,0-14.6,1.4-32,12.2-43.1,9.1-9.3,23.4-10.1,35.7-10.4.5-.1,1.1-1.2,1.8-1.2"/>
    <path class="cls-8" d="M385.2,316.92,329,277.22c-12.8-10.4-17.6-25.7-7.3-38.5l3.8-4.7c10.3-12.8,31.9-10.7,44.7-.4l49.1,43.7Z"/>
    <path class="cls-1" d="M385.7,315.92c-13.4-9.5-26.8-18.9-40.3-28.4-5.3-3.7-10.8-7.2-15.8-11.2-6.5-5.1-11.9-12.8-12.4-21.2-.5-7.9,3.8-14,8.6-19.7,10.9-12.9,31.2-11,43.5-1,4.5,3.7,8.8,7.8,13.1,11.7,8,7.1,16,14.2,24,21.4,3,2.7,6,5.4,9,8,.5.5,1.6,1.9,2.3,2,1.8.4-1.3.3.5-.9-2.3,1.4-4.5,5.2-6.2,7.2-3.8,4.4-7.6,8.9-11.4,13.3-5.4,6.3-10.9,12.6-16.3,18.9-1,1.1.7,2.7,1.6,1.6,11.3-13.2,22.7-26.4,34-39.6a1.12,1.12,0,0,0,0-1.6c-10.1-9-20.3-18-30.4-27.1-10.9-9.7-21.4-21.9-36.4-24.7-10.4-2-21.5.2-28.6,8.6-6.2,7.3-11.2,15.2-9.2,25.2,3,15.5,18.4,23.6,30.3,31.9,13,9.2,26,18.3,39,27.5,1.2.9,2.3-1,1.1-1.9"/>
    <path class="cls-8" d="M408.9,328.62l-101.5,3c-23.5,0-41.7-10.4-41.7-26.9v-7.6c0-16.4,19.3-25.3,42.8-25.3l98.3,4.6Z"/>
    <path class="cls-1" d="M408.9,327.42l-65.4,2c-10.9.3-21.8.7-32.6,1-14.2.4-33.5-1.9-41.4-15.6-3.3-5.7-3.7-14.6-2.4-21.1,2-10.7,13.1-16.1,22.6-18.6,10.4-2.7,20.6-2.1,31.2-1.6q39.45,1.8,78.9,3.7a22.66,22.66,0,0,0,5.2.2c2.7-.4.2.9.5-.9-.7,4.5.4,9.9.6,14.4.5,12.5,1,25.1,1.6,37.6a1.15,1.15,0,0,0,2.3,0c-.7-17.4-1.4-34.8-2.2-52.2a1.11,1.11,0,0,0-1.1-1.1c-18.6-.9-37.3-1.7-55.9-2.6-11.2-.5-22.4-1-33.5-1.6-9.5-.4-18.8-.6-28.1,1.8-13,3.3-24.5,11.2-24.6,25.6,0,5.6-.2,11.2,2.5,16.3,3.2,6.2,9.1,10.5,15.4,13.2,9.7,4.2,20.1,4.8,30.6,4.5l30.6-.9,65.4-2c1.3.2,1.3-2.1-.2-2.1"/>
    <path class="cls-1" d="M416.5,270c6.7,0,9.2,14.9,9.2,33.2s-2.4,33.2-9.2,33.2-16.8-14.9-16.8-33.2S409.8,270,416.5,270"/>
    <path class="cls-2" d="M416.5,270c6.7,0,9.2,14.9,9.2,33.2s-2.4,33.2-9.2,33.2-16.8-14.9-16.8-33.2S409.8,270,416.5,270Z"/>
    <path class="cls-1" d="M116.2,231.32a3.4,3.4,0,1,1-3.4,3.4,3.37,3.37,0,0,1,3.4-3.4"/>
    <path class="cls-1" d="M116.2,298.32a3.4,3.4,0,1,1-3.4,3.4,3.31,3.31,0,0,1,3.4-3.4"/>
    <path class="cls-7" d="M113.1,231.32a3.4,3.4,0,1,1-3.4,3.4,3.44,3.44,0,0,1,3.4-3.4"/>
    <path class="cls-7" d="M113.1,298.32a3.4,3.4,0,1,1-3.4,3.4,3.37,3.37,0,0,1,3.4-3.4"/>
    <path class="cls-1" d="M124.2,211.82c1.7-2,4.6,1.5,5.7,2.8.9,1.1,2.5-.5,1.6-1.6-1.9-2.4-6.1-6.1-8.9-2.8-1,1.1.7,2.7,1.6,1.6"/>
    <path class="cls-1" d="M122.6,326.22c2.8,3.3,7-.4,8.9-2.8.9-1.1-.7-2.8-1.6-1.6-1.1,1.3-4,4.7-5.7,2.8-1-1.1-2.6.5-1.6,1.6"/>
    <path class="cls-1" d="M151.2,270.62s-13.2-3.9-8.8,5.5a32.53,32.53,0,0,1-.7,24.5c7.1-7.4,9.5-30,9.5-30"/>
    <path class="cls-1" d="M151.2,265.92s-13.2,3.9-8.8-5.5a32.53,32.53,0,0,0-.7-24.5c7.1,7.4,9.5,30,9.5,30"/>
    <path class="cls-1" d="M128.9,217.42a60.43,60.43,0,0,1,0,101.6s73.2,22.7,73.2-50.8-73.2-50.8-73.2-50.8"/>
    <path class="cls-1" d="M65.3,264.32c.8,17,5.5,30.7,10.5,30.4a3.93,3.93,0,0,0,2.9-1.9,2.08,2.08,0,0,1-1.2.5c-2.7.1-5.1-5.7-5.5-13a27.14,27.14,0,0,1,1.2-10.1,30.17,30.17,0,0,0-.4,6.9c.3,7.3,2.8,13.1,5.5,13,1.2-.1,2.2-1.3,3-3.3a1.85,1.85,0,0,1-.2.7c.1-.2.1-.3.2-.5-1.2,9-3.8,15.1-7,15.2-5,.2-9.7-13.4-10.5-30.4-.5-9.4.4-17.9,2.1-23.6a83.17,83.17,0,0,0-.6,16.1"/>
    <path class="cls-9" d="M214.7,237.82c7.5,1.4,15.4,5.8,19.6,12.3,6.1,9.5,1.2,19-4,27.6-8.2,13.7-18.8,26.2-29.7,37.8-1,1.1.6,2.7,1.6,1.6,12.5-13.2,25.2-27.9,33.4-44.2,4.4-8.8,6-17.1-.4-25.5-4.6-6.1-12.3-10.4-19.8-11.8-1.5-.3-2.1,1.9-.7,2.2"/>
    <path class="cls-7" d="M227.9,318.92c0,3.9-8.6,4.1-19.3,4.1s-19.3-.1-19.3-4.1,8.6-7.1,19.3-7.1,19.3,3.1,19.3,7.1"/>
    <path class="cls-1" d="M226.8,318.62c-.7,4.7-14.9,3.2-18.2,3.2s-16.3,1.3-17.4-2.7c-1.5-5.4,14.4-6.2,17.4-6.2,4.1,0,17.3.3,18.2,6.3.2,1.4,2.4.8,2.2-.6-1.1-7.8-15.9-8-21.5-7.9-4.6.1-19.5.9-19.4,8.2.1,6.6,14.6,5.2,18.3,5.2,4.5,0,21.4,2.3,22.5-4.9.3-1.5-1.9-2.1-2.1-.6"/>
  </g>
</svg>
